<?xml version="1.0" encoding="utf-8"?>
<!-- Generator: Adobe Illustrator 23.0.1, SVG Export Plug-In . SVG Version: 6.00 Build 0)  -->
<svg version="1.1" id="Capa_1" xmlns="http://www.w3.org/2000/svg" xmlns:xlink="http://www.w3.org/1999/xlink" x="0px" y="0px"
	 width="38px" height="50px" viewBox="0 0 38 50" style="enable-background:new 0 0 38 50;" xml:space="preserve">
<style type="text/css">
	.st0{fill:#A8A8A8;}
	.st1{fill:#898989;}
</style>
<g>
	<circle class="st0" cx="19" cy="18.6" r="8.4"/>
	<g>
		<path class="st0" d="M19,49.2C16.4,46.2,0.9,27.8,0.9,18.6C0.9,8.6,9,0.5,19,0.5c10,0,18.1,8.1,18.1,18.1
			C37.1,27.8,21.6,46.2,19,49.2z M19,5.3c-7.4,0-13.4,6-13.4,13.4S11.6,32,19,32c7.4,0,13.4-6,13.4-13.4S26.4,5.3,19,5.3z"/>
		<path class="st1" d="M19,1c9.7,0,17.6,7.9,17.6,17.6c0,8.6-14.2,25.8-17.6,29.8C15.5,44.4,1.4,27.3,1.4,18.6C1.4,8.9,9.3,1,19,1
			 M19,32.5c7.6,0,13.9-6.2,13.9-13.9S26.6,4.8,19,4.8S5.1,11,5.1,18.6S11.4,32.5,19,32.5 M19,0C8.7,0,0.4,8.3,0.4,18.6S19,50,19,50
			s18.6-21.1,18.6-31.4S29.3,0,19,0L19,0z M19,31.5c-7.1,0-12.9-5.8-12.9-12.9S11.9,5.8,19,5.8s12.9,5.8,12.9,12.9
			S26.1,31.5,19,31.5L19,31.5z"/>
	</g>
</g>
</svg>
