<?xml version="1.0" standalone="no"?>
<!DOCTYPE svg PUBLIC "-//W3C//DTD SVG 20010904//EN"
 "http://www.w3.org/TR/2001/REC-SVG-20010904/DTD/svg10.dtd">
<svg version="1.0" xmlns="http://www.w3.org/2000/svg"
 width="700.000000pt" height="700.000000pt" viewBox="0 0 700.000000 700.000000"
 preserveAspectRatio="xMidYMid meet">
<metadata>
Created by potrace 1.11, written by Peter Selinger 2001-2013
</metadata>
<g transform="translate(0.000000,700.000000) scale(0.100000,-0.100000)"
fill="#000000" stroke="none">
<path d="M0 3500 l0 -3500 3500 0 3500 0 0 3500 0 3500 -3500 0 -3500 0 0
-3500z m3558 2376 c15 -8 38 -26 52 -41 l25 -27 3 -273 c3 -304 1 -318 -61
-355 -71 -44 -168 -16 -209 60 -17 32 -18 56 -16 295 3 250 4 261 25 291 41
58 123 80 181 50z m-1900 -730 c35 -19 333 -321 361 -366 65 -107 -31 -239
-156 -215 -31 6 -67 36 -215 183 -198 196 -221 230 -199 301 12 40 52 88 86
102 32 13 94 10 123 -5z m3819 -2 c38 -19 59 -45 73 -95 20 -68 4 -91 -197
-291 -157 -156 -194 -187 -225 -193 -104 -19 -194 77 -167 179 9 33 42 73 177
210 92 92 181 177 197 187 37 23 96 24 142 3z m-1766 -590 c526 -90 939 -484
1050 -1004 32 -147 32 -390 0 -537 -65 -306 -228 -573 -460 -753 l-71 -55 0
-322 c0 -196 -4 -343 -11 -375 -37 -178 -181 -331 -357 -379 -58 -17 -105 -19
-377 -19 -270 0 -319 2 -376 18 -172 48 -309 187 -354 357 -12 47 -15 125 -15
391 l0 332 -55 42 c-78 61 -212 204 -268 288 -74 111 -143 264 -178 397 -41
158 -51 384 -24 546 63 378 287 709 614 908 133 81 320 149 466 170 103 15
314 12 416 -5z m-2176 -1317 c102 -63 97 -205 -10 -257 -38 -18 -62 -20 -283
-20 -267 0 -288 4 -335 59 -49 59 -30 177 35 212 45 24 86 28 323 26 213 -2
243 -4 270 -20z m4513 0 c100 -55 95 -208 -8 -259 -31 -16 -67 -18 -285 -18
-225 0 -254 2 -285 19 -47 25 -71 60 -77 113 -8 71 40 141 109 158 18 5 141 8
273 7 210 -2 244 -4 273 -20z"/>
<path d="M3355 4269 c-309 -38 -610 -253 -755 -539 -223 -441 -88 -1003 307
-1278 30 -21 41 -22 232 -22 l201 0 0 113 -1 112 -197 125 c-213 137 -235 159
-235 235 0 87 68 150 153 142 35 -3 69 -19 156 -75 61 -40 113 -72 116 -72 3
0 7 60 10 133 3 115 6 137 25 168 59 95 200 92 256 -6 7 -11 14 -82 17 -162
l5 -143 90 61 c50 33 107 69 127 80 104 54 218 -16 218 -134 0 -67 -28 -93
-250 -235 l-185 -119 -3 -111 -3 -112 202 0 201 0 48 35 c124 91 255 258 323
412 58 130 71 202 71 398 1 158 -2 190 -22 264 -108 397 -448 684 -865 730
-108 12 -142 12 -242 0z"/>
<path d="M3040 1845 c0 -235 3 -292 15 -323 21 -49 52 -81 100 -103 36 -17 70
-19 333 -19 242 0 299 3 330 15 47 20 78 50 105 100 21 38 22 56 25 328 l4
287 -456 0 -456 0 0 -285z"/>
</g>
</svg>
